<?xml version="1.0" standalone="no"?>
<!DOCTYPE svg PUBLIC "-//W3C//DTD SVG 20010904//EN"
 "http://www.w3.org/TR/2001/REC-SVG-20010904/DTD/svg10.dtd">
<svg version="1.0" xmlns="http://www.w3.org/2000/svg"
 width="646.000000pt" height="407.000000pt" viewBox="0 0 646.000000 407.000000"
 preserveAspectRatio="xMidYMid meet">
<metadata>
Created by potrace 1.16, written by Peter Selinger 2001-2019
</metadata>
<g transform="translate(0.000000,407.000000) scale(0.100000,-0.100000)"
fill="#000000" stroke="none">
<path d="M3152 2923 c-98 -169 -192 -335 -192 -339 0 -2 6 -4 14 -4 8 0 58 79
112 175 55 96 104 173 109 171 6 -1 54 -79 107 -172 54 -94 104 -170 113 -172
14 -3 15 -1 4 20 -33 63 -221 388 -224 388 -2 0 -22 -30 -43 -67z"/>
<path d="M1485 2368 c-3 -7 -27 -76 -54 -153 -27 -77 -54 -152 -60 -167 l-11
-28 48 0 c44 0 49 2 59 30 11 28 14 30 66 30 51 0 55 -2 67 -30 11 -27 17 -30
57 -30 32 0 44 4 41 13 -3 6 -31 87 -63 180 l-59 167 -43 0 c-26 0 -46 -5 -48
-12z"/>
<path d="M1760 2200 l0 -180 40 0 39 0 3 63 c3 58 4 62 28 62 20 0 28 -9 49
-62 l24 -63 48 0 48 0 -29 68 c-28 66 -28 67 -10 87 59 63 42 169 -32 194 -17
6 -71 11 -119 11 l-89 0 0 -180z"/>
<path d="M2117 2373 c-4 -3 -7 -84 -7 -180 l0 -173 45 0 45 0 0 180 0 180 -38
0 c-21 0 -42 -3 -45 -7z"/>
<path d="M2290 2200 l0 -180 45 0 44 0 3 87 3 86 59 -86 c57 -84 61 -87 98
-87 l38 0 0 181 0 180 -42 -3 -43 -3 -5 -85 -5 -85 -60 87 c-57 84 -62 88 -97
88 l-38 0 0 -180z"/>
<path d="M2810 2200 l0 -180 45 0 45 0 0 60 0 60 45 0 c62 0 110 22 129 59 33
63 10 142 -49 167 -21 9 -69 14 -125 14 l-90 0 0 -180z"/>
<path d="M3155 2213 c-32 -92 -60 -174 -63 -180 -3 -9 9 -13 42 -13 43 0 48 2
57 30 11 29 13 30 69 30 57 0 59 -1 65 -30 6 -28 9 -30 55 -30 l49 0 -46 128
c-25 70 -53 150 -62 177 -17 49 -19 50 -62 53 l-45 3 -59 -168z"/>
<path d="M3480 2200 l0 -180 121 0 120 0 -3 43 -3 42 -77 3 -78 3 0 134 0 135
-40 0 -40 0 0 -180z"/>
<path d="M3797 2373 c-4 -3 -7 -84 -7 -180 l0 -173 45 0 45 0 0 180 0 180 -38
0 c-21 0 -42 -3 -45 -7z"/>
<path d="M3970 2368 c0 -7 16 -88 36 -180 l37 -168 47 0 46 0 23 90 c13 49 27
88 31 85 4 -2 17 -43 30 -90 l23 -85 46 0 46 0 38 173 c20 94 37 175 37 180 0
4 -20 7 -45 7 -32 0 -45 -4 -45 -14 0 -29 -33 -157 -39 -151 -3 4 -15 41 -27
83 l-20 77 -44 0 c-48 0 -49 -2 -80 -124 -6 -23 -14 -40 -17 -37 -4 3 -14 41
-23 84 l-16 77 -42 3 c-29 2 -42 -1 -42 -10z"/>
<path d="M4475 2213 c-32 -92 -60 -174 -63 -180 -3 -9 9 -13 42 -13 43 0 48 2
57 30 11 29 13 30 69 30 57 0 59 -1 65 -30 6 -28 9 -30 55 -30 l49 0 -46 128
c-25 70 -53 150 -62 177 -17 49 -19 50 -62 53 l-45 3 -59 -168z"/>
<path d="M4800 2200 l0 -180 121 0 120 0 -3 43 -3 42 -77 3 -78 3 0 134 0 135
-40 0 -40 0 0 -180z"/>
<path d="M2496 1788 c-8 -13 -59 -102 -115 -198 l-100 -175 454 -3 c249 -1
661 -1 914 0 l460 3 -109 189 c-115 200 -122 210 -139 205 -6 -2 37 -84 94
-183 58 -98 105 -182 105 -187 0 -5 -367 -9 -865 -9 -499 0 -865 4 -865 9 0 5
36 71 81 147 44 77 92 158 105 182 20 33 22 42 10 42 -9 0 -22 -10 -30 -22z"/>
</g>
</svg>
